<svg width="16" height="14" viewBox="0 0 16 14" fill="none" xmlns="http://www.w3.org/2000/svg">
<path d="M8.83711 0.130737C8.63317 -0.0554432 8.31692 -0.0410458 8.13074 0.162894C7.94456 0.366834 7.95895 0.683089 8.16289 0.869269L14.3307 6.5H0.5C0.223858 6.5 0 6.72386 0 7C0 7.27614 0.223858 7.5 0.5 7.5H14.3279L8.16289 13.1281C7.95895 13.3143 7.94456 13.6305 8.13074 13.8345C8.31692 14.0384 8.63317 14.0528 8.83711 13.8666L15.7535 7.55258C15.8934 7.42482 15.9732 7.25728 15.993 7.08414C15.9976 7.05678 16 7.02867 16 7C16 6.97313 15.9979 6.94675 15.9938 6.92103C15.9756 6.74512 15.8955 6.57446 15.7535 6.44478L8.83711 0.130737Z" fill="#242424"/>
</svg>
