<svg width="17" height="17" viewBox="0 0 17 17" fill="none" xmlns="http://www.w3.org/2000/svg">
<path d="M8.11335 4.65233C8.54158 4.65233 8.88874 4.30518 8.88874 3.87695C8.88874 3.44871 8.54158 3.10156 8.11335 3.10156C7.68511 3.10156 7.33796 3.44871 7.33796 3.87695C7.33796 4.30518 7.68511 4.65233 8.11335 4.65233ZM11.2149 5.68619C11.6431 5.68619 11.9903 5.33903 11.9903 4.9108C11.9903 4.48256 11.6431 4.13541 11.2149 4.13541C10.7867 4.13541 10.4395 4.48256 10.4395 4.9108C10.4395 5.33903 10.7867 5.68619 11.2149 5.68619ZM13.7995 7.23696C13.7995 7.6652 13.4524 8.01235 13.0241 8.01235C12.5959 8.01235 12.2488 7.6652 12.2488 7.23696C12.2488 6.80873 12.5959 6.46158 13.0241 6.46158C13.4524 6.46158 13.7995 6.80873 13.7995 7.23696ZM13.0241 11.1139C13.4524 11.1139 13.7995 10.7668 13.7995 10.3385C13.7995 9.91028 13.4524 9.56313 13.0241 9.56313C12.5959 9.56313 12.2488 9.91028 12.2488 10.3385C12.2488 10.7668 12.5959 11.1139 13.0241 11.1139ZM11.7318 12.4062C11.7318 12.8345 11.3847 13.1816 10.9564 13.1816C10.5282 13.1816 10.1811 12.8345 10.1811 12.4062C10.1811 11.978 10.5282 11.6308 10.9564 11.6308C11.3847 11.6308 11.7318 11.978 11.7318 12.4062ZM12.1942 1.02526C9.34628 -0.437703 6.45212 -0.297331 3.99865 1.20585C2.74668 1.9729 1.3967 3.5867 0.634479 5.23024C0.251305 6.05647 -0.00330535 6.93189 3.24276e-05 7.74684C0.00342382 8.57487 0.276542 9.36537 0.969805 9.93042C1.60064 10.4446 2.14969 10.7035 2.68119 10.7298C3.21673 10.7562 3.63471 10.5393 3.96166 10.3464C4.03355 10.304 4.10084 10.2631 4.16517 10.224C4.41555 10.0719 4.62102 9.94705 4.87787 9.86565C5.16882 9.77345 5.53717 9.73942 6.07227 9.90293C6.26955 9.9632 6.38845 10.0526 6.47168 10.1554C6.56038 10.265 6.63141 10.4185 6.6844 10.6369C6.73782 10.8571 6.7669 11.1167 6.78862 11.4231C6.79671 11.5372 6.80424 11.6675 6.81213 11.8041C6.8236 12.0028 6.83585 12.2149 6.85174 12.41C6.90821 13.1035 7.02747 13.895 7.44505 14.6142C7.87309 15.3515 8.5834 15.9616 9.72306 16.3512C11.3795 16.9175 12.8929 16.458 14.071 15.5253C15.2356 14.6032 16.0938 13.2086 16.5228 11.8141C17.8823 7.39594 16.3043 3.13664 12.1942 1.02526ZM4.53876 2.0874C6.67302 0.779791 9.18273 0.640567 11.7218 1.94487C15.3475 3.80742 16.7599 7.52811 15.5347 11.51C15.1563 12.7398 14.4031 13.9437 13.4292 14.7147C12.4689 15.4751 11.3168 15.8035 10.0575 15.3729C9.12332 15.0536 8.62685 14.5907 8.33913 14.0951C8.04095 13.5816 7.93548 12.9806 7.88218 12.3261C7.86623 12.1302 7.85622 11.9535 7.84604 11.7739C7.83831 11.6375 7.83048 11.4994 7.81988 11.35C7.79721 11.0302 7.76362 10.7003 7.68911 10.3932C7.61416 10.0843 7.492 9.7727 7.27523 9.50493C7.05299 9.2304 6.75413 9.03023 6.37438 8.9142C5.6491 8.69259 5.0662 8.72144 4.56554 8.88011C4.17776 9.003 3.84367 9.20757 3.5869 9.36481C3.53327 9.39765 3.48301 9.42842 3.43633 9.45596C3.14146 9.62992 2.94775 9.70782 2.73226 9.69716C2.51272 9.6863 2.17138 9.57602 1.62298 9.12904C1.22435 8.80413 1.03632 8.33992 1.03388 7.7426C1.03138 7.13219 1.22623 6.41159 1.57238 5.66521C2.2688 4.16353 3.49687 2.72574 4.53876 2.0874Z" fill="#242424"/>
</svg>
