<svg width="17" height="17" viewBox="0 0 17 17" fill="none" xmlns="http://www.w3.org/2000/svg">
<path d="M17 4.5C17 6.98528 14.9853 9 12.5 9C10.0147 9 8 6.98528 8 4.5C8 2.01472 10.0147 0 12.5 0C14.9853 0 17 2.01472 17 4.5ZM13 2.5C13 2.22386 12.7761 2 12.5 2C12.2239 2 12 2.22386 12 2.5V4H10.5C10.2239 4 10 4.22386 10 4.5C10 4.77614 10.2239 5 10.5 5H12V6.5C12 6.77614 12.2239 7 12.5 7C12.7761 7 13 6.77614 13 6.5V5H14.5C14.7761 5 15 4.77614 15 4.5C15 4.22386 14.7761 4 14.5 4H13V2.5ZM15 11.2764V9.40029C15.3578 9.21739 15.6929 8.99647 16 8.74284V11.2764C16 12.6935 14.8359 13.8423 13.4 13.8423H8.80999L4.79895 16.8034C4.35668 17.1298 3.73 17.0406 3.39921 16.6042C3.26989 16.4335 3.2 16.2262 3.2 16.0133L3.19937 13.8423H2.6C1.16406 13.8423 0 12.6935 0 11.2764V4.56582C0 3.14876 1.16406 2 2.6 2H7.59971C7.43777 2.31679 7.30564 2.65136 7.20703 3H2.6C1.70383 3 1 3.71348 1 4.56582V11.2764C1 12.1288 1.70383 12.8423 2.6 12.8423H4.19908L4.2 16L4.20346 15.9997L4.20502 15.9988L8.48086 12.8423H13.4C14.2962 12.8423 15 12.1288 15 11.2764Z" fill="#424242"/>
</svg>
