<svg width="9" height="9" viewBox="0 0 9 9" fill="none" xmlns="http://www.w3.org/2000/svg">
<path fill-rule="evenodd" clip-rule="evenodd" d="M4.5 0C6.98528 0 9 2.01472 9 4.5C9 6.98528 6.98528 9 4.5 9C2.01472 9 0 6.98528 0 4.5C0 2.01472 2.01472 0 4.5 0ZM4.90909 6.59091L4.90962 4.9091H6.59131C6.81702 4.9091 7 4.72594 7 4.50001C7 4.27407 6.81702 4.09092 6.59131 4.09092H4.90947L4.90909 2.40909C4.90909 2.18316 4.72593 2 4.5 2C4.27407 2 4.09091 2.18316 4.09091 2.40909L4.09129 4.09092L2.40869 4.09091C2.18298 4.09091 2 4.27407 2 4.5C2 4.72593 2.18298 4.90909 2.40869 4.90909L4.09144 4.9091L4.09091 6.59091C4.09091 6.81684 4.27407 7 4.5 7C4.72593 7 4.90909 6.81684 4.90909 6.59091Z" fill="#37A660"/>
</svg>
