<svg width="9" height="9" viewBox="0 0 9 9" fill="none" xmlns="http://www.w3.org/2000/svg">
<path d="M4.5 9C6.98528 9 9 6.98528 9 4.5C9 2.01472 6.98528 0 4.5 0C2.01472 0 0 2.01472 0 4.5C0 6.98528 2.01472 9 4.5 9ZM2.14645 4.14645L4.14645 2.14645C4.34171 1.95118 4.65829 1.95118 4.85355 2.14645L6.85355 4.14645C7.04882 4.34171 7.04882 4.65829 6.85355 4.85355C6.65829 5.04882 6.34171 5.04882 6.14645 4.85355L5 3.70711V7.50015C5 7.77629 4.77614 8.00015 4.5 8.00015C4.22386 8.00015 4 7.77629 4 7.50015V3.70711L2.85355 4.85355C2.65829 5.04882 2.34171 5.04882 2.14645 4.85355C1.95118 4.65829 1.95118 4.34171 2.14645 4.14645Z" fill="#1E8BCD"/>
</svg>
