<svg width="14" height="14" viewBox="0 0 14 14" fill="none" xmlns="http://www.w3.org/2000/svg">
<path d="M0 2C0 0.89543 0.895431 0 2 0H12C13.1046 0 14 0.895431 14 2V6.25716C13.6929 6.00353 13.3578 5.78261 13 5.59971V2C13 1.44772 12.5523 1 12 1H2C1.44772 1 1 1.44772 1 2V9.29287L6.14642 4.14645C6.34169 3.95118 6.65827 3.95118 6.85353 4.14645L8.20659 5.49951C7.89087 5.64454 7.59125 5.8186 7.31114 6.01827L6.49998 5.20711L1 10.7071V12C1 12.5523 1.44772 13 2 13H5.59971C5.78261 13.3578 6.00353 13.6929 6.25716 14H2C0.89543 14 0 13.1046 0 12V2Z" fill="#3A3A38"/>
<path d="M12 3C12 3.55228 11.5523 4 11 4C10.4477 4 10 3.55228 10 3C10 2.44772 10.4477 2 11 2C11.5523 2 12 2.44772 12 3Z" fill="#3A3A38"/>
</svg>
